<svg width="88" height="11" viewBox="0 0 88 11" fill="none" xmlns="http://www.w3.org/2000/svg">
<path d="M0 0H3.03254V8.29007H9.73064V10.8397H0V0Z" fill="white"/>
<path d="M14.8353 0V10.8397H11.8027V0H14.8353Z" fill="white"/>
<path d="M25.444 10.8397H21.4546L16.3758 0H19.9089L23.4714 8.21722L27.0486 0H30.3461L25.444 10.8397Z" fill="white"/>
<path d="M34.9186 0V10.8397H31.8861V0H34.9186Z" fill="white"/>
<path d="M37.6222 10.8397V0H43.2309C48.9427 0 50.2528 2.84106 50.2528 5.04106V5.47815C50.2528 7.75099 49.2518 10.8397 43.2456 10.8397H37.6222ZM40.6547 2.40397V8.42119H43.0984C46.7787 8.42119 47.1025 6.64371 47.1025 5.41987V5.33245C47.1025 4.10861 46.7492 2.40397 43.0984 2.40397H40.6547Z" fill="white"/>
<path d="M55.4764 0V10.8397H52.4439V0H55.4764Z" fill="white"/>
<path d="M64.5247 11H64.0978C58.7246 11 58.1063 7.66358 58.1063 5.50728V0H61.1389V5.43444C61.1389 6.67285 61.4922 8.45033 64.2744 8.45033H64.3481C67.1303 8.45033 67.4542 6.67285 67.4542 5.43444V0H70.472V5.50728C70.472 7.67815 69.7065 11 64.5247 11Z" fill="white"/>
<path d="M73.1023 10.8397V0H77.1358L80.6247 7.34305L84.2167 0H88V10.8397H85.0411V3.74437L81.7141 10.8397H79.344L76.017 3.74437V10.8397H73.1023Z" fill="white"/>
</svg>
