<svg width="5" height="6" viewBox="0 0 5 6" fill="none" xmlns="http://www.w3.org/2000/svg">
<path d="M2.14592 0C1.09013 0 0.197424 0.575106 0.197424 1.69098C0.197424 2.22317 0.446351 2.6266 0.824033 2.88411C0.300429 3.19313 0 3.69098 0 4.27467C0 5.33904 0.815449 5.99999 2.14592 5.99999C3.4678 5.99999 4.29184 5.33904 4.29184 4.27467C4.29184 3.69098 3.99141 3.18454 3.45922 2.88411C3.84549 2.61802 4.08583 2.22317 4.08583 1.69098C4.08583 0.575106 3.20171 0 2.14592 0ZM2.14592 2.43776C1.69957 2.43776 1.37339 2.17167 1.37339 1.75107C1.37339 1.32189 1.69957 1.07296 2.14592 1.07296C2.59227 1.07296 2.91845 1.32189 2.91845 1.75107C2.91845 2.17167 2.59227 2.43776 2.14592 2.43776ZM2.14592 4.93561C1.5794 4.93561 1.16738 4.65235 1.16738 4.13733C1.16738 3.62231 1.5794 3.34763 2.14592 3.34763C2.71244 3.34763 3.12446 3.63089 3.12446 4.13733C3.12446 4.65235 2.71244 4.93561 2.14592 4.93561Z" fill="#624BD3"/>
</svg>
